<svg width="256" height="80" viewBox="0 0 256 80" fill="none" xmlns="http://www.w3.org/2000/svg">
<g clip-path="url(#clip0_598_387)">
<rect width="256" height="80" fill="white"/>
<path fill-rule="evenodd" clip-rule="evenodd" d="M246.515 80H9.48497C4.2574 80 0 75.4913 0 70V10C0 4.48878 4.2574 0 9.48497 0H246.515C251.738 0 256 4.48878 256 10V70C256 75.4913 251.738 80 246.515 80Z" fill="black"/>
<path fill-rule="evenodd" clip-rule="evenodd" d="M246.515 1.601C250.9 1.601 254.488 5.37656 254.488 10V70C254.488 74.6234 250.923 78.399 246.515 78.399H9.48497C5.10041 78.399 1.51176 74.6234 1.51176 70V10C1.51176 5.37656 5.07686 1.601 9.48497 1.601H246.515ZM246.515 0H9.48497C4.2574 0 0 4.50873 0 10V70C0 75.5112 4.2574 80 9.48497 80H246.515C251.738 80 256 75.5112 256 70V10C256 4.50873 251.738 0 246.515 0Z" fill="#A6A6A6"/>
<path d="M134.862 26.4639C133.153 26.4639 131.712 25.8305 130.572 24.5836C129.442 23.3716 128.811 21.7008 128.839 19.9951C128.839 18.1746 129.423 16.6335 130.572 15.4115C131.707 14.1647 133.148 13.5312 134.858 13.5312C136.548 13.5312 137.989 14.1647 139.148 15.4115C140.297 16.6734 140.881 18.2145 140.881 19.9951C140.862 21.8205 140.278 23.3617 139.148 24.5786C138.013 25.8355 136.572 26.4639 134.862 26.4639ZM83.9949 26.4639C82.323 26.4639 80.8724 25.8405 79.6856 24.6086C78.5083 23.3816 77.9102 21.8305 77.9102 20.0001C77.9102 18.1697 78.5083 16.6185 79.6856 15.3916C80.8489 14.1597 82.2994 13.5362 83.9949 13.5362C84.8237 13.5362 85.6291 13.7108 86.4014 14.0649C87.1596 14.4091 87.7766 14.8779 88.2334 15.4514L88.3464 15.5961L87.0702 16.9228L86.9383 16.7582C86.2177 15.8505 85.2523 15.4066 83.976 15.4066C82.8363 15.4066 81.8426 15.8355 81.0231 16.6834C80.199 17.5362 79.7798 18.6534 79.7798 20.0051C79.7798 21.3567 80.199 22.4739 81.0231 23.3268C81.8426 24.1746 82.8363 24.6036 83.976 24.6036C85.1911 24.6036 86.213 24.1746 87.0089 23.3268C87.4799 22.828 87.7719 22.1298 87.8755 21.247H83.7829V19.3816H89.6321L89.6557 19.5512C89.6981 19.8654 89.7405 20.1896 89.7405 20.4889C89.7405 22.2096 89.2507 23.6011 88.2805 24.6285C87.1785 25.8455 85.7374 26.4639 83.9949 26.4639ZM151.628 26.1996H149.825L144.3 16.838L144.347 18.5238V26.1946H142.544V13.8006H144.602L144.658 13.8953L149.853 22.7133L149.806 21.0325V13.8006H151.628V26.1996ZM121.308 26.1996H119.481V15.6659H116.312V13.8006H124.473V15.6659H121.304V26.1996H121.308ZM114.823 26.1996H113.001V13.8006H114.823V26.1996ZM104.58 26.1996H102.758V15.6659H99.5881V13.8006H107.75V15.6659H104.58V26.1996ZM98.4342 26.1796H91.4453V13.8006H98.4342V15.6659H93.2726V19.0674H97.9303V20.9128H93.2726V24.3143H98.4342V26.1796ZM131.909 23.3018C132.724 24.1647 133.713 24.5986 134.862 24.5986C136.044 24.5986 137.01 24.1746 137.815 23.3018C138.616 22.4539 139.021 21.3417 139.021 20.0001C139.021 18.6584 138.616 17.5412 137.82 16.6983C137.005 15.8355 136.011 15.4016 134.867 15.4016C133.685 15.4016 132.72 15.8255 131.919 16.6983C131.118 17.5462 130.713 18.6584 130.713 20.0001C130.713 21.3417 131.114 22.4589 131.909 23.3018Z" fill="white"/>
<path fill-rule="evenodd" clip-rule="evenodd" d="M128.668 43.5108C124.217 43.5108 120.61 47.0869 120.61 52.0196C120.61 56.9073 124.241 60.5283 128.668 60.5283C133.118 60.5283 136.726 56.9273 136.726 52.0196C136.726 47.0869 133.118 43.5108 128.668 43.5108ZM128.668 57.1567C126.233 57.1567 124.137 55.0221 124.137 51.9996C124.137 48.9323 126.238 46.8425 128.668 46.8425C131.103 46.8425 133.198 48.9323 133.198 51.9996C133.203 55.042 131.103 57.1567 128.668 57.1567ZM111.087 43.5108C106.637 43.5108 103.029 47.0869 103.029 52.0196C103.029 56.9073 106.66 60.5283 111.087 60.5283C115.538 60.5283 119.145 56.9273 119.145 52.0196C119.145 47.0869 115.533 43.5108 111.087 43.5108ZM111.087 57.1567C108.652 57.1567 106.557 55.0221 106.557 51.9996C106.557 48.9323 108.657 46.8425 111.087 46.8425C113.522 46.8425 115.618 48.9323 115.618 51.9996C115.618 55.042 113.522 57.1567 111.087 57.1567ZM90.1676 46.1093V49.7103H98.3292C98.0796 51.7303 97.4485 53.2216 96.483 54.244C95.2868 55.5108 93.4407 56.8874 90.1864 56.8874C85.1708 56.8874 81.2478 52.5981 81.2478 47.2864C81.2478 41.9747 85.1708 37.6854 90.1864 37.6854C92.8944 37.6854 94.8677 38.8176 96.3323 40.264L98.7436 37.7103C96.7091 35.6455 94.0011 34.0645 90.2053 34.0645C83.3247 34.0645 77.5508 39.9996 77.5508 47.2664C77.5508 54.5532 83.3199 60.4684 90.2053 60.4684C93.9211 60.4684 96.7091 59.1817 98.9132 56.7577C101.16 54.3787 101.871 51.0221 101.871 48.3138C101.871 47.4709 101.81 46.7128 101.682 46.0694H90.1629C90.1676 46.0645 90.1676 46.1093 90.1676 46.1093ZM175.735 48.9123C175.061 47.0021 173.027 43.4909 168.854 43.4909C164.719 43.4909 161.281 46.9373 161.281 51.9996C161.281 56.7777 164.682 60.5083 169.255 60.5083C172.928 60.5083 175.066 58.1293 175.947 56.7328L173.22 54.7976C172.316 56.2191 171.058 57.1517 169.273 57.1517C167.47 57.1517 166.207 56.2839 165.369 54.5732L176.112 49.86C176.112 49.865 175.735 48.9123 175.735 48.9123ZM164.78 51.7552C164.696 48.4684 167.192 46.7976 168.977 46.7976C170.385 46.7976 171.557 47.5308 171.958 48.5981L164.78 51.7552ZM156.054 59.9996H159.581V35.0021H156.054V59.9996ZM150.261 45.4011H150.134C149.338 44.3986 147.826 43.4909 145.895 43.4909C141.888 43.4909 138.195 47.2265 138.195 52.0246C138.195 56.8026 141.869 60.4934 145.895 60.4934C147.803 60.4934 149.338 59.5807 150.134 58.5582H150.261V59.7802C150.261 63.027 148.622 64.7777 145.98 64.7777C143.818 64.7777 142.476 63.1318 141.93 61.7552L138.864 63.1118C139.745 65.3562 142.095 68.1343 145.975 68.1343C150.11 68.1343 153.614 65.5557 153.614 59.2665V43.9996H150.28V45.4011C150.285 45.4011 150.261 45.4011 150.261 45.4011ZM146.211 57.1567C143.776 57.1567 141.742 55.0021 141.742 52.0246C141.742 49.0221 143.776 46.8475 146.211 46.8475C148.622 46.8475 150.492 49.047 150.492 52.0246C150.515 55.0021 148.627 57.1567 146.211 57.1567ZM192.251 35.0021H183.816V59.9996H187.344V50.5333H192.256C196.16 50.5333 199.998 47.5358 199.998 42.7777C199.998 38.0196 196.174 35.0021 192.251 35.0021ZM192.355 47.042H187.339V38.4635H192.355C194.997 38.4635 196.49 40.7727 196.49 42.7527C196.49 44.7128 194.978 47.042 192.355 47.042ZM214.136 43.4659C211.574 43.4659 208.932 44.6679 207.84 47.2864L210.967 48.663C211.64 47.2864 212.874 46.8176 214.179 46.8176C216.006 46.8176 217.852 47.9747 217.894 50.0395V50.3039C217.263 49.9248 215.879 49.3462 214.221 49.3462C210.844 49.3462 207.42 51.3014 207.42 54.9672C207.42 58.3238 210.19 60.4784 213.274 60.4784C215.643 60.4784 216.948 59.3462 217.763 58.0345H217.89V59.9697H221.29V50.3936C221.29 45.9348 218.163 43.4659 214.136 43.4659ZM213.694 57.1567C212.54 57.1567 210.924 56.5582 210.924 55.0221C210.924 53.0869 212.94 52.3537 214.659 52.3537C216.213 52.3537 216.948 52.7078 217.871 53.1966C217.617 55.441 215.827 57.1368 213.694 57.1567ZM233.695 43.9996L229.645 54.8425H229.518L225.321 43.9996H221.525L227.822 59.1567L224.233 67.5807H227.907L237.594 43.9996H233.695ZM201.943 59.9996H205.471V35.0021H201.943V59.9996Z" fill="white"/>
<path fill-rule="evenodd" clip-rule="evenodd" d="M19.7056 15.0673C19.1593 15.6907 18.8438 16.6433 18.8438 17.8902V62.1147C18.8438 63.3615 19.1593 64.3142 19.7244 64.9127L19.8704 65.0473L43.2673 40.2693V39.7157L19.8516 14.9326L19.7056 15.0673Z" fill="url(#paint0_linear_598_387)"/>
<path fill-rule="evenodd" clip-rule="evenodd" d="M51.0517 48.5535L43.248 40.2892V39.7106L51.0517 31.4463L51.2213 31.556L60.4519 37.1121C63.094 38.6882 63.094 41.2917 60.4519 42.8877L51.2213 48.4438L51.0517 48.5535Z" fill="url(#paint1_linear_598_387)"/>
<path fill-rule="evenodd" clip-rule="evenodd" d="M51.2212 48.4439L43.248 40L19.7051 64.9327C20.5669 65.9102 22.0127 66.0199 23.6281 65.0673L51.2212 48.4439Z" fill="url(#paint2_linear_598_387)"/>
<path fill-rule="evenodd" clip-rule="evenodd" d="M51.2212 31.5559L23.6281 14.9574C22.0127 13.9798 20.5622 14.1145 19.7051 15.0921L43.248 39.9998L51.2212 31.5559Z" fill="url(#paint3_linear_598_387)"/>
<path opacity="0.2" fill-rule="evenodd" clip-rule="evenodd" d="M51.0504 48.2646L23.6457 64.7534C22.1151 65.6861 20.7493 65.6213 19.8687 64.7734L19.7227 64.928L19.8687 65.0627C20.7493 65.9055 22.1151 65.9754 23.6457 65.0427L51.2388 48.4442L51.0504 48.2646Z" fill="black"/>
<path opacity="0.12" fill-rule="evenodd" clip-rule="evenodd" d="M60.4511 42.5985L51.0273 48.2643L51.1969 48.4439L60.4275 42.8878C61.7509 42.0898 62.4008 41.0424 62.4008 40C62.3208 40.9576 61.6473 41.8653 60.4511 42.5985Z" fill="black"/>
<path opacity="0.25" fill-rule="evenodd" clip-rule="evenodd" d="M23.6286 15.2466L60.4523 37.4012C61.6486 38.1144 62.322 39.0471 62.4256 39.9997C62.4256 38.9573 61.7757 37.9099 60.4523 37.1119L23.6286 14.9573C20.9866 13.3563 18.8438 14.693 18.8438 17.89V18.1793C18.8438 14.9773 20.9866 13.6655 23.6286 15.2466Z" fill="white"/>
</g>
<defs>
<linearGradient id="paint0_linear_598_387" x1="41.1687" y1="17.4131" x2="3.41968" y2="26.9107" gradientUnits="userSpaceOnUse">
<stop stop-color="#00A0FF"/>
<stop offset="0.00657" stop-color="#00A1FF"/>
<stop offset="0.2601" stop-color="#00BEFF"/>
<stop offset="0.5122" stop-color="#00D2FF"/>
<stop offset="0.7604" stop-color="#00DFFF"/>
<stop offset="1" stop-color="#00E3FF"/>
</linearGradient>
<linearGradient id="paint1_linear_598_387" x1="63.8974" y1="40" x2="18.2012" y2="40" gradientUnits="userSpaceOnUse">
<stop stop-color="#FFE000"/>
<stop offset="0.4087" stop-color="#FFBD00"/>
<stop offset="0.7754" stop-color="#FFA500"/>
<stop offset="1" stop-color="#FF9C00"/>
</linearGradient>
<linearGradient id="paint2_linear_598_387" x1="46.8857" y1="44.5947" x2="14.1789" y2="96.5744" gradientUnits="userSpaceOnUse">
<stop stop-color="#FF3A44"/>
<stop offset="1" stop-color="#C31162"/>
</linearGradient>
<linearGradient id="paint3_linear_598_387" x1="13.7767" y1="0.357366" x2="28.3692" y2="23.5734" gradientUnits="userSpaceOnUse">
<stop stop-color="#32A071"/>
<stop offset="0.0685" stop-color="#2DA771"/>
<stop offset="0.4762" stop-color="#15CF74"/>
<stop offset="0.8009" stop-color="#06E775"/>
<stop offset="1" stop-color="#00F076"/>
</linearGradient>
<clipPath id="clip0_598_387">
<rect width="256" height="80" fill="white"/>
</clipPath>
</defs>
</svg>
