<svg width="346" height="108" viewBox="0 0 346 108" fill="none" xmlns="http://www.w3.org/2000/svg">
<g clip-path="url(#clip0_177_2170)">
<path fill-rule="evenodd" clip-rule="evenodd" d="M333.18 108H12.8195C5.75415 108 0 101.913 0 94.5V13.5C0 6.05985 5.75415 0 12.8195 0H333.18C340.239 0 346 6.05985 346 13.5V94.5C346 101.913 340.239 108 333.18 108Z" fill="black"/>
<path fill-rule="evenodd" clip-rule="evenodd" d="M333.18 2.16135C339.106 2.16135 343.957 7.25835 343.957 13.5V94.5C343.957 100.742 339.138 105.839 333.18 105.839H12.8195C6.89352 105.839 2.04323 100.742 2.04323 94.5V13.5C2.04323 7.25835 6.86169 2.16135 12.8195 2.16135H333.18ZM333.18 0H12.8195C5.75415 0 0 6.08678 0 13.5V94.5C0 101.94 5.75415 108 12.8195 108H333.18C340.24 108 346 101.94 346 94.5V13.5C346 6.08678 340.24 0 333.18 0Z" fill="#A6A6A6"/>
<path d="M182.274 35.7262C179.964 35.7262 178.016 34.8711 176.475 33.1878C174.948 31.5516 174.095 29.296 174.133 26.9933C174.133 24.5357 174.922 22.4551 176.475 20.8055C178.009 19.1222 179.957 18.2671 182.268 18.2671C184.553 18.2671 186.501 19.1222 188.066 20.8055C189.62 22.509 190.409 24.5895 190.409 26.9933C190.383 29.4576 189.594 31.5382 188.066 33.1811C186.532 34.8778 184.585 35.7262 182.274 35.7262ZM113.523 35.7262C111.264 35.7262 109.303 34.8845 107.699 33.2215C106.108 31.5651 105.3 29.4711 105.3 27C105.3 24.5289 106.108 22.4349 107.699 20.7786C109.272 19.1155 111.232 18.2738 113.523 18.2738C114.644 18.2738 115.732 18.5095 116.776 18.9875C117.801 19.4521 118.635 20.085 119.252 20.8594L119.405 21.0546L117.68 22.8456L117.502 22.6234C116.528 21.398 115.223 20.7988 113.498 20.7988C111.958 20.7988 110.615 21.3778 109.507 22.5225C108.393 23.6738 107.827 25.1821 107.827 27.0067C107.827 28.8314 108.393 30.3397 109.507 31.491C110.615 32.6357 111.958 33.2147 113.498 33.2147C115.14 33.2147 116.522 32.6357 117.597 31.491C118.234 30.8177 118.628 29.8751 118.768 28.6833H113.237V26.1651H121.143L121.174 26.394C121.232 26.8182 121.289 27.2559 121.289 27.6599C121.289 29.9828 120.627 31.8614 119.316 33.2484C117.826 34.8913 115.879 35.7262 113.523 35.7262ZM204.934 35.3693H202.496L195.03 22.7312L195.094 25.007V35.3626H192.656V18.6307H195.437L195.514 18.7586L202.535 30.6629L202.471 28.3938V18.6307H204.934V35.3693ZM163.955 35.3693H161.485V21.1489H157.202V18.6307H168.232V21.1489H163.949V35.3693H163.955ZM155.19 35.3693H152.727V18.6307H155.19V35.3693ZM141.346 35.3693H138.882V21.1489H134.599V18.6307H145.63V21.1489H141.346V35.3693ZM133.039 35.3424H123.593V18.6307H133.039V21.1489H126.063V25.7409H132.358V28.2322H126.063V32.8242H133.039V35.3424ZM178.283 31.4574C179.384 32.6222 180.721 33.208 182.274 33.208C183.872 33.208 185.177 32.6357 186.265 31.4574C187.347 30.3127 187.895 28.8112 187.895 27C187.895 25.1888 187.347 23.6806 186.271 22.5427C185.17 21.3778 183.827 20.792 182.28 20.792C180.683 20.792 179.378 21.3643 178.296 22.5427C177.214 23.6873 176.666 25.1888 176.666 27C176.666 28.8112 177.207 30.3195 178.283 31.4574Z" fill="white"/>
<path fill-rule="evenodd" clip-rule="evenodd" d="M173.904 58.7399C167.889 58.7399 163.013 63.5676 163.013 70.2267C163.013 76.8252 167.921 81.7135 173.904 81.7135C179.919 81.7135 184.795 76.8521 184.795 70.2267C184.795 63.5676 179.919 58.7399 173.904 58.7399ZM173.904 77.1619C170.613 77.1619 167.781 74.2801 167.781 70.1998C167.781 66.0589 170.619 63.2377 173.904 63.2377C177.195 63.2377 180.027 66.0589 180.027 70.1998C180.034 74.307 177.195 77.1619 173.904 77.1619ZM150.143 58.7399C144.127 58.7399 139.252 63.5676 139.252 70.2267C139.252 76.8252 144.159 81.7135 150.143 81.7135C156.158 81.7135 161.033 76.8521 161.033 70.2267C161.033 63.5676 156.151 58.7399 150.143 58.7399ZM150.143 77.1619C146.852 77.1619 144.019 74.2801 144.019 70.1998C144.019 66.0589 146.858 63.2377 150.143 63.2377C153.433 63.2377 156.266 66.0589 156.266 70.1998C156.266 74.307 153.433 77.1619 150.143 77.1619ZM121.868 62.2479V67.1093H132.899C132.562 69.8362 131.709 71.8494 130.404 73.2297C128.787 74.9399 126.292 76.7983 121.894 76.7983C115.115 76.7983 109.813 71.0078 109.813 63.8369C109.813 56.6661 115.115 50.8756 121.894 50.8756C125.554 50.8756 128.221 52.404 130.2 54.3566L133.459 50.9092C130.71 48.1217 127.05 45.9873 121.919 45.9873C112.62 45.9873 104.816 53.9998 104.816 63.81C104.816 73.6472 112.613 81.6327 121.919 81.6327C126.941 81.6327 130.71 79.8955 133.688 76.6232C136.725 73.4115 137.686 68.8801 137.686 65.224C137.686 64.0861 137.603 63.0626 137.431 62.194H121.862C121.868 62.1873 121.868 62.2479 121.868 62.2479ZM237.518 66.0319C236.608 63.4531 233.858 58.713 228.218 58.713C222.63 58.713 217.983 63.3656 217.983 70.1998C217.983 76.6501 222.579 81.6866 228.759 81.6866C233.724 81.6866 236.614 78.4748 237.804 76.5896L234.119 73.9771C232.897 75.896 231.197 77.1551 228.785 77.1551C226.347 77.1551 224.641 75.9836 223.508 73.6741L238.027 67.3112C238.027 67.318 237.518 66.0319 237.518 66.0319ZM222.712 69.8698C222.598 65.4327 225.971 63.1771 228.384 63.1771C230.287 63.1771 231.872 64.1669 232.413 65.6078L222.712 69.8698ZM210.918 80.9998H215.685V47.2531H210.918V80.9998ZM203.088 61.2918H202.916C201.841 59.9384 199.798 58.713 197.188 58.713C191.771 58.713 186.781 63.7561 186.781 70.2334C186.781 76.6838 191.746 81.6664 197.188 81.6664C199.766 81.6664 201.841 80.4342 202.916 79.0539H203.088V80.7035C203.088 85.0868 200.873 87.4501 197.302 87.4501C194.381 87.4501 192.567 85.2282 191.828 83.3698L187.685 85.2013C188.875 88.2312 192.051 91.9816 197.296 91.9816C202.885 91.9816 207.62 88.5005 207.62 80.01V59.3998H203.114V61.2918C203.12 61.2918 203.088 61.2918 203.088 61.2918ZM197.614 77.1619C194.323 77.1619 191.574 74.2531 191.574 70.2334C191.574 66.1801 194.323 63.2444 197.614 63.2444C200.873 63.2444 203.4 66.2137 203.4 70.2334C203.432 74.2531 200.88 77.1619 197.614 77.1619ZM259.841 47.2531H248.44V80.9998H253.208V68.2202H259.847C265.124 68.2202 270.311 64.1736 270.311 57.7501C270.311 51.3267 265.143 47.2531 259.841 47.2531ZM259.981 63.507H253.202V51.926H259.981C263.551 51.926 265.569 55.0434 265.569 57.7165C265.569 60.3626 263.526 63.507 259.981 63.507ZM289.42 58.6793C285.957 58.6793 282.386 60.302 280.909 63.8369L285.136 65.6953C286.046 63.8369 287.714 63.204 289.477 63.204C291.947 63.204 294.442 64.7661 294.499 67.5536V67.9105C293.646 67.3988 291.775 66.6177 289.534 66.6177C284.97 66.6177 280.343 69.2571 280.343 74.206C280.343 78.7374 284.086 81.6462 288.255 81.6462C291.457 81.6462 293.22 80.1177 294.321 78.3469H294.493V80.9594H299.088V68.0317C299.088 62.0122 294.862 58.6793 289.42 58.6793ZM288.821 77.1619C287.262 77.1619 285.079 76.3539 285.079 74.2801C285.079 71.6676 287.803 70.6778 290.126 70.6778C292.227 70.6778 293.22 71.1559 294.467 71.8157C294.124 74.8457 291.705 77.1349 288.821 77.1619ZM315.854 59.3998L310.38 74.0377H310.208L304.537 59.3998H299.407L307.917 79.8619L303.067 91.2342H308.032L321.125 59.3998H315.854ZM272.94 80.9998H277.708V47.2531H272.94V80.9998Z" fill="white"/>
<path fill-rule="evenodd" clip-rule="evenodd" d="M26.632 20.341C25.8937 21.1826 25.4672 22.4687 25.4672 24.1519V83.8549C25.4672 85.5382 25.8937 86.8243 26.6575 87.6322L26.8548 87.814L58.4772 54.3637V53.6163L26.8294 20.1592L26.632 20.341Z" fill="url(#paint0_linear_177_2170)"/>
<path fill-rule="evenodd" clip-rule="evenodd" d="M68.9989 65.5474L58.4517 54.3905V53.6095L68.9989 42.4526L69.228 42.6008L81.7038 50.1015C85.2747 52.2292 85.2747 55.7439 81.7038 57.8985L69.228 65.3993L68.9989 65.5474Z" fill="url(#paint1_linear_177_2170)"/>
<path fill-rule="evenodd" clip-rule="evenodd" d="M69.228 65.3993L58.4517 54L26.632 87.6591C27.7969 88.9788 29.751 89.1269 31.9343 87.8409L69.228 65.3993Z" fill="url(#paint2_linear_177_2170)"/>
<path fill-rule="evenodd" clip-rule="evenodd" d="M69.228 42.6006L31.9343 20.1926C29.751 18.8729 27.7905 19.0547 26.632 20.3744L58.4517 53.9999L69.228 42.6006Z" fill="url(#paint3_linear_177_2170)"/>
<path opacity="0.2" fill-rule="evenodd" clip-rule="evenodd" d="M68.9989 65.1567L31.9597 87.4166C29.891 88.6757 28.0451 88.5882 26.8548 87.4435L26.6575 87.6523L26.8548 87.834C28.0451 88.972 29.891 89.0662 31.9597 87.8071L69.2535 65.3991L68.9989 65.1567Z" fill="black"/>
<path opacity="0.12" fill-rule="evenodd" clip-rule="evenodd" d="M81.7038 57.508L68.967 65.1569L69.1962 65.3993L81.672 57.8985C83.4606 56.8212 84.339 55.4072 84.339 54C84.2308 55.2928 83.3206 56.5182 81.7038 57.508Z" fill="black"/>
<path opacity="0.25" fill-rule="evenodd" clip-rule="evenodd" d="M31.9343 20.5832L81.7038 50.4919C83.3206 51.4548 84.2308 52.7139 84.3708 53.9999C84.3708 52.5927 83.4924 51.1787 81.7038 50.1014L31.9343 20.1927C28.3634 18.0313 25.4672 19.8358 25.4672 24.1518V24.5423C25.4672 20.2196 28.3634 18.4488 31.9343 20.5832Z" fill="white"/>
</g>
<defs>
<linearGradient id="paint0_linear_177_2170" x1="55.6407" y1="23.5078" x2="4.62764" y2="36.3575" gradientUnits="userSpaceOnUse">
<stop stop-color="#00A0FF"/>
<stop offset="0.00657" stop-color="#00A1FF"/>
<stop offset="0.2601" stop-color="#00BEFF"/>
<stop offset="0.5122" stop-color="#00D2FF"/>
<stop offset="0.7604" stop-color="#00DFFF"/>
<stop offset="1" stop-color="#00E3FF"/>
</linearGradient>
<linearGradient id="paint1_linear_177_2170" x1="86.3606" y1="54.0001" x2="24.5993" y2="54.0001" gradientUnits="userSpaceOnUse">
<stop stop-color="#FFE000"/>
<stop offset="0.4087" stop-color="#FFBD00"/>
<stop offset="0.7754" stop-color="#FFA500"/>
<stop offset="1" stop-color="#FF9C00"/>
</linearGradient>
<linearGradient id="paint2_linear_177_2170" x1="63.3683" y1="60.2028" x2="19.2362" y2="130.422" gradientUnits="userSpaceOnUse">
<stop stop-color="#FF3A44"/>
<stop offset="1" stop-color="#C31162"/>
</linearGradient>
<linearGradient id="paint3_linear_177_2170" x1="18.6195" y1="0.482592" x2="38.3095" y2="31.8448" gradientUnits="userSpaceOnUse">
<stop stop-color="#32A071"/>
<stop offset="0.0685" stop-color="#2DA771"/>
<stop offset="0.4762" stop-color="#15CF74"/>
<stop offset="0.8009" stop-color="#06E775"/>
<stop offset="1" stop-color="#00F076"/>
</linearGradient>
<clipPath id="clip0_177_2170">
<rect width="346" height="108" fill="white"/>
</clipPath>
</defs>
</svg>
