<svg width="258" height="118" viewBox="0 0 258 118" fill="none" xmlns="http://www.w3.org/2000/svg">
<g clip-path="url(#clip0_371_409)">
<path fill-rule="evenodd" clip-rule="evenodd" d="M248.441 80H9.55907C4.29067 80 0 75.4913 0 70V10C0 4.48878 4.29067 0 9.55907 0H248.441C253.705 0 258 4.48878 258 10V70C258 75.4913 253.705 80 248.441 80Z" fill="black"/>
<path fill-rule="evenodd" clip-rule="evenodd" d="M248.441 1.601C252.86 1.601 256.476 5.37656 256.476 10V70C256.476 74.6234 252.883 78.399 248.441 78.399H9.55907C5.14026 78.399 1.52357 74.6234 1.52357 70V10C1.52357 5.37656 5.11652 1.601 9.55907 1.601H248.441ZM248.441 0H9.55907C4.29067 0 0 4.50873 0 10V70C0 75.5112 4.29067 80 9.55907 80H248.441C253.705 80 258 75.5112 258 70V10C258 4.50873 253.705 0 248.441 0Z" fill="#A6A6A6"/>
<path d="M135.915 26.4639C134.192 26.4639 132.739 25.8305 131.591 24.5836C130.452 23.3716 129.816 21.7008 129.844 19.9951C129.844 18.1746 130.433 16.6335 131.591 15.4115C132.735 14.1647 134.187 13.5312 135.91 13.5312C137.614 13.5312 139.066 14.1647 140.234 15.4115C141.392 16.6734 141.981 18.2145 141.981 19.9951C141.962 21.8205 141.373 23.3617 140.234 24.5786C139.09 25.8355 137.638 26.4639 135.915 26.4639ZM84.6498 26.4639C82.9649 26.4639 81.503 25.8405 80.3069 24.6086C79.1204 23.3816 78.5176 21.8305 78.5176 20.0001C78.5176 18.1697 79.1204 16.6185 80.3069 15.3916C81.4793 14.1597 82.9411 13.5362 84.6498 13.5362C85.4852 13.5362 86.2968 13.7108 87.0752 14.0649C87.8393 14.4091 88.4611 14.8779 88.9215 15.4514L89.0354 15.5961L87.7492 16.9228L87.6163 16.7582C86.8901 15.8505 85.9171 15.4066 84.6308 15.4066C83.4822 15.4066 82.4807 15.8355 81.6549 16.6834C80.8243 17.5362 80.4019 18.6534 80.4019 20.0051C80.4019 21.3567 80.8243 22.4739 81.6549 23.3268C82.4807 24.1746 83.4822 24.6036 84.6308 24.6036C85.8554 24.6036 86.8853 24.1746 87.6875 23.3268C88.1621 22.828 88.4564 22.1298 88.5608 21.247H84.4362V19.3816H90.3311L90.3549 19.5512C90.3976 19.8654 90.4403 20.1896 90.4403 20.4889C90.4403 22.2096 89.9467 23.6011 88.969 24.6285C87.8583 25.8455 86.4059 26.4639 84.6498 26.4639ZM152.812 26.1996H150.994L145.426 16.838L145.474 18.5238V26.1946H143.656V13.8006H145.73L145.787 13.8953L151.022 22.7133L150.975 21.0325V13.8006H152.812V26.1996ZM122.255 26.1996H120.413V15.6659H117.219V13.8006H125.444V15.6659H122.25V26.1996H122.255ZM115.719 26.1996H113.882V13.8006H115.719V26.1996ZM105.396 26.1996H103.559V15.6659H100.365V13.8006H108.59V15.6659H105.396V26.1996ZM99.202 26.1796H92.1585V13.8006H99.202V15.6659H94V19.0674H98.6941V20.9128H94V24.3143H99.202V26.1796ZM132.939 23.3018C133.76 24.1647 134.757 24.5986 135.915 24.5986C137.106 24.5986 138.079 24.1746 138.891 23.3018C139.698 22.4539 140.106 21.3417 140.106 20.0001C140.106 18.6584 139.698 17.5412 138.895 16.6983C138.074 15.8355 137.073 15.4016 135.919 15.4016C134.728 15.4016 133.755 15.8255 132.948 16.6983C132.141 17.5462 131.733 18.6584 131.733 20.0001C131.733 21.3417 132.137 22.4589 132.939 23.3018Z" fill="white"/>
<path fill-rule="evenodd" clip-rule="evenodd" d="M129.675 43.5108C125.189 43.5108 121.554 47.0869 121.554 52.0196C121.554 56.9073 125.213 60.5283 129.675 60.5283C134.16 60.5283 137.796 56.9273 137.796 52.0196C137.796 47.0869 134.16 43.5108 129.675 43.5108ZM129.675 57.1567C127.221 57.1567 125.109 55.0221 125.109 51.9996C125.109 48.9323 127.226 46.8425 129.675 46.8425C132.129 46.8425 134.241 48.9323 134.241 51.9996C134.245 55.042 132.129 57.1567 129.675 57.1567ZM111.957 43.5108C107.471 43.5108 103.836 47.0869 103.836 52.0196C103.836 56.9073 107.495 60.5283 111.957 60.5283C116.442 60.5283 120.078 56.9273 120.078 52.0196C120.078 47.0869 116.437 43.5108 111.957 43.5108ZM111.957 57.1567C109.503 57.1567 107.391 55.0221 107.391 51.9996C107.391 48.9323 109.508 46.8425 111.957 46.8425C114.411 46.8425 116.523 48.9323 116.523 51.9996C116.523 55.042 114.411 57.1567 111.957 57.1567ZM90.8736 46.1093V49.7103H99.0989C98.8474 51.7303 98.2114 53.2216 97.2384 54.244C96.0328 55.5108 94.1723 56.8874 90.8926 56.8874C85.8377 56.8874 81.8841 52.5981 81.8841 47.2864C81.8841 41.9747 85.8377 37.6854 90.8926 37.6854C93.6217 37.6854 95.6104 38.8176 97.0865 40.264L99.5166 37.7103C97.4662 35.6455 94.7371 34.0645 90.9115 34.0645C83.9772 34.0645 78.1582 39.9996 78.1582 47.2664C78.1582 54.5532 83.9724 60.4684 90.9115 60.4684C94.6564 60.4684 97.4662 59.1817 99.6875 56.7577C101.951 54.3787 102.668 51.0221 102.668 48.3138C102.668 47.4709 102.606 46.7128 102.478 46.0694H90.8688C90.8736 46.0645 90.8736 46.1093 90.8736 46.1093ZM177.109 48.9123C176.431 47.0021 174.38 43.4909 170.175 43.4909C166.008 43.4909 162.543 46.9373 162.543 51.9996C162.543 56.7777 165.97 60.5083 170.578 60.5083C174.281 60.5083 176.435 58.1293 177.323 56.7328L174.575 54.7976C173.663 56.2191 172.396 57.1517 170.597 57.1517C168.78 57.1517 167.508 56.2839 166.663 54.5732L177.489 49.86C177.489 49.865 177.109 48.9123 177.109 48.9123ZM166.069 51.7552C165.984 48.4684 168.5 46.7976 170.298 46.7976C171.718 46.7976 172.899 47.5308 173.303 48.5981L166.069 51.7552ZM157.274 59.9996H160.829V35.0021H157.274V59.9996ZM151.437 45.4011H151.308C150.506 44.3986 148.983 43.4909 147.037 43.4909C142.998 43.4909 139.276 47.2265 139.276 52.0246C139.276 56.8026 142.979 60.4934 147.037 60.4934C148.959 60.4934 150.506 59.5807 151.308 58.5582H151.437V59.7802C151.437 63.027 149.785 64.7777 147.122 64.7777C144.944 64.7777 143.591 63.1318 143.04 61.7552L139.95 63.1118C140.838 65.3562 143.206 68.1343 147.117 68.1343C151.285 68.1343 154.816 65.5557 154.816 59.2665V43.9996H151.456V45.4011C151.46 45.4011 151.437 45.4011 151.437 45.4011ZM147.355 57.1567C144.901 57.1567 142.85 55.0021 142.85 52.0246C142.85 49.0221 144.901 46.8475 147.355 46.8475C149.785 46.8475 151.669 49.047 151.669 52.0246C151.693 55.0021 149.79 57.1567 147.355 57.1567ZM193.755 35.0021H185.254V59.9996H188.809V50.5333H193.759C197.694 50.5333 201.562 47.5358 201.562 42.7777C201.562 38.0196 197.708 35.0021 193.755 35.0021ZM193.859 47.042H188.804V38.4635H193.859C196.522 38.4635 198.026 40.7727 198.026 42.7527C198.026 44.7128 196.503 47.042 193.859 47.042ZM215.811 43.4659C213.229 43.4659 210.566 44.6679 209.465 47.2864L212.616 48.663C213.295 47.2864 214.539 46.8176 215.853 46.8176C217.695 46.8176 219.556 47.9747 219.598 50.0395V50.3039C218.962 49.9248 217.567 49.3462 215.896 49.3462C212.493 49.3462 209.042 51.3014 209.042 54.9672C209.042 58.3238 211.833 60.4784 214.942 60.4784C217.33 60.4784 218.644 59.3462 219.465 58.0345H219.594V59.9697H223.02V50.3936C223.02 45.9348 219.869 43.4659 215.811 43.4659ZM215.365 57.1567C214.202 57.1567 212.574 56.5582 212.574 55.0221C212.574 53.0869 214.605 52.3537 216.338 52.3537C217.904 52.3537 218.644 52.7078 219.575 53.1966C219.318 55.441 217.515 57.1368 215.365 57.1567ZM235.522 43.9996L231.44 54.8425H231.312L227.083 43.9996H223.258L229.604 59.1567L225.987 67.5807H229.689L239.452 43.9996H235.522ZM203.523 59.9996H207.078V35.0021H203.523V59.9996Z" fill="white"/>
<path fill-rule="evenodd" clip-rule="evenodd" d="M19.8588 15.0673C19.3082 15.6907 18.9902 16.6433 18.9902 17.8902V62.1147C18.9902 63.3615 19.3082 64.3142 19.8778 64.9127L20.0249 65.0473L43.6046 40.2693V39.7157L20.0059 14.9326L19.8588 15.0673Z" fill="url(#paint0_linear_371_409)"/>
<path fill-rule="evenodd" clip-rule="evenodd" d="M51.4506 48.5535L43.5859 40.2892V39.7106L51.4506 31.4463L51.6214 31.556L60.9242 37.1121C63.5869 38.6882 63.5869 41.2917 60.9242 42.8877L51.6214 48.4438L51.4506 48.5535Z" fill="url(#paint1_linear_371_409)"/>
<path fill-rule="evenodd" clip-rule="evenodd" d="M51.6217 48.4439L43.5862 40L19.8594 64.9327C20.728 65.9102 22.1851 66.0199 23.8131 65.0673L51.6217 48.4439Z" fill="url(#paint2_linear_371_409)"/>
<path fill-rule="evenodd" clip-rule="evenodd" d="M51.6217 31.5559L23.8131 14.9574C22.1851 13.9798 20.7232 14.1145 19.8594 15.0921L43.5862 39.9998L51.6217 31.5559Z" fill="url(#paint3_linear_371_409)"/>
<path opacity="0.2" fill-rule="evenodd" clip-rule="evenodd" d="M51.4494 48.2646L23.8306 64.7534C22.2881 65.6861 20.9116 65.6213 20.0241 64.7734L19.877 64.928L20.0241 65.0627C20.9116 65.9055 22.2881 65.9754 23.8306 65.0427L51.6393 48.4442L51.4494 48.2646Z" fill="black"/>
<path opacity="0.12" fill-rule="evenodd" clip-rule="evenodd" d="M60.9232 42.5985L51.4258 48.2643L51.5966 48.4439L60.8994 42.8878C62.2331 42.0898 62.8881 41.0424 62.8881 40C62.8074 40.9576 62.1287 41.8653 60.9232 42.5985Z" fill="black"/>
<path opacity="0.25" fill-rule="evenodd" clip-rule="evenodd" d="M23.8125 15.2466L60.9239 37.4012C62.1295 38.1144 62.8082 39.0471 62.9126 39.9997C62.9126 38.9573 62.2576 37.9099 60.9239 37.1119L23.8125 14.9573C21.1498 13.3563 18.9902 14.693 18.9902 17.89V18.1793C18.9902 14.9773 21.1498 13.6655 23.8125 15.2466Z" fill="white"/>
</g>
<path d="M65.0774 112.288C62.5654 112.288 60.4614 111.448 58.7654 109.768C57.0854 108.072 56.2454 105.976 56.2454 103.48C56.2454 100.984 57.0854 98.896 58.7654 97.216C60.4614 95.52 62.5654 94.672 65.0774 94.672C67.1254 94.672 68.8934 95.248 70.3814 96.4C71.8854 97.552 72.8374 98.944 73.2374 100.576H70.8854C70.4854 99.472 69.7574 98.568 68.7014 97.864C67.6614 97.144 66.4534 96.784 65.0774 96.784C63.1894 96.784 61.6134 97.432 60.3494 98.728C59.1014 100.008 58.4774 101.592 58.4774 103.48C58.4774 105.368 59.1014 106.96 60.3494 108.256C61.6134 109.536 63.1894 110.176 65.0774 110.176C66.4534 110.176 67.6614 109.824 68.7014 109.12C69.7574 108.4 70.4854 107.488 70.8854 106.384H73.2374C72.8374 108.016 71.8854 109.408 70.3814 110.56C68.8934 111.712 67.1254 112.288 65.0774 112.288ZM81.0875 112.24C79.2795 112.24 77.7755 111.64 76.5755 110.44C75.3915 109.224 74.7995 107.744 74.7995 106C74.7995 104.256 75.3915 102.784 76.5755 101.584C77.7755 100.368 79.2795 99.76 81.0875 99.76C82.8795 99.76 84.3675 100.368 85.5515 101.584C86.7515 102.784 87.3515 104.256 87.3515 106C87.3515 107.744 86.7515 109.224 85.5515 110.44C84.3675 111.64 82.8795 112.24 81.0875 112.24ZM78.0635 109.072C78.8475 109.904 79.8555 110.32 81.0875 110.32C82.3195 110.32 83.3195 109.904 84.0875 109.072C84.8555 108.24 85.2395 107.216 85.2395 106C85.2395 104.784 84.8555 103.76 84.0875 102.928C83.3195 102.096 82.3195 101.68 81.0875 101.68C79.8555 101.68 78.8475 102.096 78.0635 102.928C77.2955 103.76 76.9115 104.784 76.9115 106C76.9115 107.216 77.2955 108.24 78.0635 109.072ZM105.53 112V104.944C105.53 103.952 105.322 103.16 104.906 102.568C104.506 101.96 103.922 101.656 103.154 101.656C102.194 101.656 101.41 102.032 100.802 102.784C100.21 103.536 99.8982 104.56 99.8662 105.856V112H97.8022V104.944C97.8022 103.936 97.5942 103.136 97.1782 102.544C96.7782 101.952 96.2022 101.656 95.4502 101.656C94.4582 101.656 93.6582 102.056 93.0502 102.856C92.4422 103.64 92.1382 104.704 92.1382 106.048V112H90.0742V100H92.1382V101.848C92.9062 100.456 94.1142 99.76 95.7622 99.76C97.5862 99.76 98.8182 100.616 99.4582 102.328C99.7782 101.544 100.29 100.92 100.994 100.456C101.698 99.992 102.498 99.76 103.394 99.76C104.69 99.76 105.714 100.2 106.466 101.08C107.218 101.96 107.594 103.144 107.594 104.632V112H105.53ZM113.157 96.376C112.885 96.648 112.541 96.784 112.125 96.784C111.709 96.784 111.357 96.648 111.069 96.376C110.781 96.088 110.637 95.736 110.637 95.32C110.637 94.92 110.781 94.576 111.069 94.288C111.357 94 111.709 93.856 112.125 93.856C112.541 93.856 112.885 94 113.157 94.288C113.429 94.576 113.565 94.92 113.565 95.32C113.565 95.736 113.429 96.088 113.157 96.376ZM111.069 112V100H113.133V112H111.069ZM116.805 112V100H118.869V101.848C119.685 100.456 120.957 99.76 122.685 99.76C124.045 99.76 125.141 100.2 125.973 101.08C126.805 101.96 127.221 103.136 127.221 104.608V112H125.181V104.92C125.181 103.912 124.925 103.12 124.413 102.544C123.901 101.952 123.213 101.656 122.349 101.656C121.357 101.656 120.525 102.048 119.853 102.832C119.197 103.616 118.869 104.688 118.869 106.048V112H116.805ZM135.978 117.256C134.394 117.256 133.074 116.864 132.018 116.08C130.978 115.312 130.362 114.32 130.17 113.104H132.186C132.714 114.656 133.994 115.432 136.026 115.432C137.162 115.432 138.074 115.064 138.762 114.328C139.466 113.608 139.818 112.592 139.818 111.28V109.864C139.386 110.504 138.802 111.016 138.066 111.4C137.33 111.784 136.522 111.976 135.642 111.976C133.962 111.976 132.562 111.392 131.442 110.224C130.322 109.04 129.762 107.584 129.762 105.856C129.762 104.144 130.322 102.704 131.442 101.536C132.578 100.352 133.978 99.76 135.642 99.76C136.522 99.76 137.33 99.952 138.066 100.336C138.802 100.72 139.386 101.224 139.818 101.848V100H141.882V111.256C141.882 113.176 141.322 114.656 140.202 115.696C139.098 116.736 137.69 117.256 135.978 117.256ZM133.002 108.88C133.754 109.664 134.73 110.056 135.93 110.056C137.13 110.056 138.106 109.664 138.858 108.88C139.61 108.08 139.986 107.072 139.986 105.856C139.986 104.64 139.602 103.64 138.834 102.856C138.082 102.056 137.114 101.656 135.93 101.656C134.746 101.656 133.77 102.056 133.002 102.856C132.25 103.64 131.874 104.64 131.874 105.856C131.874 107.072 132.25 108.08 133.002 108.88ZM154.941 112.24C153.597 112.24 152.469 111.912 151.557 111.256C150.661 110.6 150.165 109.688 150.069 108.52H152.181C152.309 109.192 152.629 109.688 153.141 110.008C153.669 110.328 154.277 110.488 154.965 110.488C155.653 110.488 156.205 110.352 156.621 110.08C157.053 109.808 157.269 109.416 157.269 108.904C157.269 108.424 157.109 108.032 156.789 107.728C156.485 107.424 155.981 107.176 155.277 106.984L153.549 106.528C151.485 105.984 150.453 104.808 150.453 103C150.453 102.024 150.837 101.24 151.605 100.648C152.389 100.056 153.389 99.76 154.605 99.76C155.837 99.76 156.845 100.088 157.629 100.744C158.429 101.384 158.877 102.2 158.973 103.192H156.909C156.749 102.664 156.461 102.248 156.045 101.944C155.645 101.64 155.165 101.488 154.605 101.488C154.013 101.488 153.517 101.624 153.117 101.896C152.733 102.168 152.541 102.528 152.541 102.976C152.541 103.408 152.685 103.76 152.973 104.032C153.261 104.304 153.725 104.528 154.365 104.704L156.285 105.208C158.333 105.72 159.357 106.904 159.357 108.76C159.357 109.912 158.949 110.784 158.133 111.376C157.317 111.952 156.253 112.24 154.941 112.24ZM167.368 112.24C165.56 112.24 164.056 111.64 162.856 110.44C161.672 109.224 161.08 107.744 161.08 106C161.08 104.256 161.672 102.784 162.856 101.584C164.056 100.368 165.56 99.76 167.368 99.76C169.16 99.76 170.648 100.368 171.832 101.584C173.032 102.784 173.632 104.256 173.632 106C173.632 107.744 173.032 109.224 171.832 110.44C170.648 111.64 169.16 112.24 167.368 112.24ZM164.344 109.072C165.128 109.904 166.136 110.32 167.368 110.32C168.6 110.32 169.6 109.904 170.368 109.072C171.136 108.24 171.52 107.216 171.52 106C171.52 104.784 171.136 103.76 170.368 102.928C169.6 102.096 168.6 101.68 167.368 101.68C166.136 101.68 165.128 102.096 164.344 102.928C163.576 103.76 163.192 104.784 163.192 106C163.192 107.216 163.576 108.24 164.344 109.072ZM181.683 112.24C179.875 112.24 178.371 111.64 177.171 110.44C175.987 109.224 175.395 107.744 175.395 106C175.395 104.256 175.987 102.784 177.171 101.584C178.371 100.368 179.875 99.76 181.683 99.76C183.475 99.76 184.963 100.368 186.147 101.584C187.347 102.784 187.947 104.256 187.947 106C187.947 107.744 187.347 109.224 186.147 110.44C184.963 111.64 183.475 112.24 181.683 112.24ZM178.659 109.072C179.443 109.904 180.451 110.32 181.683 110.32C182.915 110.32 183.915 109.904 184.683 109.072C185.451 108.24 185.835 107.216 185.835 106C185.835 104.784 185.451 103.76 184.683 102.928C183.915 102.096 182.915 101.68 181.683 101.68C180.451 101.68 179.443 102.096 178.659 102.928C177.891 103.76 177.507 104.784 177.507 106C177.507 107.216 177.891 108.24 178.659 109.072ZM190.67 112V100H192.734V101.848C193.55 100.456 194.822 99.76 196.55 99.76C197.91 99.76 199.006 100.2 199.838 101.08C200.67 101.96 201.086 103.136 201.086 104.608V112H199.046V104.92C199.046 103.912 198.79 103.12 198.278 102.544C197.766 101.952 197.078 101.656 196.214 101.656C195.222 101.656 194.39 102.048 193.718 102.832C193.062 103.616 192.734 104.688 192.734 106.048V112H190.67Z" fill="white"/>
<defs>
<linearGradient id="paint0_linear_371_409" x1="41.4896" y1="17.4131" x2="3.48116" y2="27.0507" gradientUnits="userSpaceOnUse">
<stop stop-color="#00A0FF"/>
<stop offset="0.00657" stop-color="#00A1FF"/>
<stop offset="0.2601" stop-color="#00BEFF"/>
<stop offset="0.5122" stop-color="#00D2FF"/>
<stop offset="0.7604" stop-color="#00DFFF"/>
<stop offset="1" stop-color="#00E3FF"/>
</linearGradient>
<linearGradient id="paint1_linear_371_409" x1="64.3966" y1="40" x2="18.3434" y2="40" gradientUnits="userSpaceOnUse">
<stop stop-color="#FFE000"/>
<stop offset="0.4087" stop-color="#FFBD00"/>
<stop offset="0.7754" stop-color="#FFA500"/>
<stop offset="1" stop-color="#FF9C00"/>
</linearGradient>
<linearGradient id="paint2_linear_371_409" x1="47.2523" y1="44.5947" x2="14.6563" y2="96.8031" gradientUnits="userSpaceOnUse">
<stop stop-color="#FF3A44"/>
<stop offset="1" stop-color="#C31162"/>
</linearGradient>
<linearGradient id="paint3_linear_371_409" x1="13.8847" y1="0.357367" x2="28.4277" y2="23.6754" gradientUnits="userSpaceOnUse">
<stop stop-color="#32A071"/>
<stop offset="0.0685" stop-color="#2DA771"/>
<stop offset="0.4762" stop-color="#15CF74"/>
<stop offset="0.8009" stop-color="#06E775"/>
<stop offset="1" stop-color="#00F076"/>
</linearGradient>
<clipPath id="clip0_371_409">
<rect width="258" height="80" fill="white"/>
</clipPath>
</defs>
</svg>
