<svg width="25" height="14" viewBox="0 0 25 14" fill="none" xmlns="http://www.w3.org/2000/svg">
<path d="M8.34615 0.538086C2.80769 0.538086 0.5 1.28855 0.5 1.89409V12.0765C0.5 12.6682 2.80769 13.4612 8.34615 13.4612C13.8846 13.4612 16.1923 12.7107 16.1923 12.1052V1.9227C16.1923 1.33101 13.8846 0.538086 8.34615 0.538086ZM23.9231 0.566701C23.7681 0.573632 23.6181 0.623836 23.4902 0.711625L17.4902 4.57655C17.2594 4.75009 17.1154 5.03624 17.1154 5.32701V8.67224C17.1154 8.96301 17.2594 9.24824 17.4902 9.4227L23.4902 13.2885C23.6526 13.4113 24.4428 13.7962 24.4428 12.5381V1.46116C24.4428 0.734701 24.1926 0.555625 23.9231 0.566701Z" fill="black"/>
</svg>
